<?xml version="1.0" encoding="UTF-8"?><svg id="Ebene_2" xmlns="http://www.w3.org/2000/svg" viewBox="0 0 206.38 206.4"><defs><style>.cls-1{fill:#fff;}</style></defs><g id="_ĎŽÓť_1"><path class="cls-1" d="M173.3,0H33.09C14.81,0,0,14.81,0,33.09v140.24c0,18.27,14.81,33.08,33.08,33.08h140.23c18.27,0,33.08-14.81,33.08-33.08V33.08c0-18.27-14.81-33.08-33.08-33.08ZM64.76,171.16h-27.15v-89.6h27.15v89.6ZM51.18,66.87c-8.74,0-15.82-7.08-15.82-15.82s7.08-15.82,15.82-15.82,15.82,7.08,15.82,15.82-7.08,15.82-15.82,15.82ZM171.01,171.16h-27.15v-46.57c0-13.67-5.48-23.32-14.3-23.32-15.3,0-19.71,9.77-19.71,30.05v39.84h-27.15v-61.8c0-9.44,0-20.86-.21-29.13h26.32c.58,2.97.95,9.65,1.05,13.12,3.94-7.68,12.43-15.77,32.35-15.77,21.72,0,28.8,15.69,28.8,43.9v49.68Z"/></g></svg>